<?xml version="1.0" encoding="UTF-8"?><svg id="a" xmlns="http://www.w3.org/2000/svg" viewBox="0 0 512 512"><defs><style>.b{fill:#0f172a;stroke:#231f20;stroke-miterlimit:10;}.c{fill:#f8fafc;}.c,.d{stroke-width:0px;}.d{fill:#3b82f6;}</style></defs><rect class="b" width="512" height="512" rx="112.333" ry="112.333"/><path class="c" d="m133.238,330.604c-12.388,0-23.449-3.012-33.179-9.025-9.734-6.014-17.298-14.333-22.694-24.95-5.4-10.617-8.096-22.648-8.096-36.099s2.742-25.436,8.229-35.966c5.483-10.526,13.139-18.846,22.96-24.95,9.821-6.105,20.923-9.158,33.312-9.158,10.086,0,18.887,1.904,26.411,5.707,7.519,3.807,13.491,9.157,17.917,16.059v-75.914h31.852v191.111h-28.667l-3.185-19.377c-2.833,3.895-6.283,7.565-10.352,11.016-4.073,3.451-8.938,6.238-14.599,8.361-5.665,2.123-12.301,3.186-19.907,3.186Zm6.636-27.605c7.606,0,14.333-1.812,20.173-5.441,5.839-3.625,10.352-8.626,13.537-14.997s4.778-13.711,4.778-22.03-1.593-15.661-4.778-22.031c-3.186-6.371-7.698-11.323-13.537-14.864-5.839-3.538-12.566-5.309-20.173-5.309-7.258,0-13.802,1.771-19.642,5.309-5.839,3.542-10.397,8.494-13.669,14.864-3.277,6.37-4.911,13.715-4.911,22.031s1.634,15.66,4.911,22.03c3.272,6.371,7.83,11.372,13.669,14.997,5.84,3.629,12.384,5.441,19.642,5.441Z"/><path class="d" d="m219.768,385.812v-27.073h10.883c6.014,0,10.261-1.194,12.741-3.584,2.476-2.389,3.716-6.503,3.716-12.342v-149.173h31.852v149.438c0,10.261-1.771,18.535-5.309,24.818-3.541,6.279-8.539,10.837-14.996,13.67-6.462,2.828-14.201,4.246-23.226,4.246h-15.661Zm43.531-213.407c-6.018,0-10.883-1.812-14.599-5.441-3.716-3.625-5.574-8.096-5.574-13.404,0-5.483,1.858-9.954,5.574-13.404,3.716-3.451,8.582-5.176,14.599-5.176,5.84,0,10.617,1.725,14.334,5.176,3.715,3.451,5.572,7.921,5.572,13.404,0,5.309-1.857,9.78-5.572,13.404-3.717,3.629-8.494,5.441-14.334,5.441Z"/><path class="d" d="m379.026,330.604c-13.097,0-24.817-2.966-35.169-8.893-10.353-5.927-18.406-14.154-24.154-24.685-5.753-10.526-8.627-22.517-8.627-35.967,0-13.976,2.874-26.231,8.627-36.762,5.748-10.526,13.802-18.8,24.154-24.818,10.352-6.014,22.163-9.025,35.435-9.025,16.631,0,30.612,4.38,41.938,13.139,11.322,8.759,18.58,20.749,21.766,35.966h-33.444c-1.771-6.723-5.441-12.032-11.016-15.926-5.574-3.89-12.169-5.84-19.774-5.84-6.549,0-12.521,1.684-17.917,5.043-5.399,3.363-9.646,8.229-12.741,14.599-3.098,6.371-4.645,14.068-4.645,23.093,0,6.901.884,13.006,2.654,18.314,1.767,5.309,4.288,9.779,7.564,13.404,3.272,3.629,7.034,6.416,11.281,8.361,4.247,1.949,8.847,2.92,13.803,2.92,5.13,0,9.775-.838,13.935-2.521,4.156-1.68,7.698-4.201,10.617-7.565,2.92-3.359,4.998-7.341,6.238-11.944h33.444c-3.186,14.864-10.443,26.768-21.766,35.701-11.326,8.938-25.395,13.404-42.204,13.404Z"/></svg>